<svg width="19" height="16" viewBox="0 0 19 16" fill="none" xmlns="http://www.w3.org/2000/svg">
<path d="M18.7279 0.871929L10.777 15.6408C10.7104 15.7645 10.5976 15.866 10.4562 15.9293C10.3147 15.9926 10.1526 16.0142 9.99517 15.9908C9.83774 15.9673 9.69388 15.9001 9.58609 15.7997C9.4783 15.6992 9.41266 15.5712 9.39943 15.4356L8.72721 8.57008L0.662976 7.99779C0.503705 7.98652 0.35331 7.93064 0.235313 7.83887C0.117315 7.7471 0.0383687 7.62463 0.0108202 7.4906C-0.0167283 7.35658 0.0086748 7.21856 0.0830565 7.09813C0.157438 6.9777 0.276604 6.88166 0.421917 6.82501L17.7695 0.055949C17.9036 0.00362503 18.0533 -0.0125117 18.1985 0.00970575C18.3437 0.0319232 18.4774 0.0914309 18.5817 0.180238C18.686 0.269045 18.7559 0.382899 18.782 0.50651C18.8081 0.630121 18.7892 0.757571 18.7277 0.871745L18.7279 0.871929Z" fill="#FA7436"/>
</svg>
